<svg  viewBox="0 0 308 70" fill="none" xmlns="http://www.w3.org/2000/svg">
<mask id="path-1-outside-1_107_43" maskUnits="userSpaceOnUse" x="33" y="7" width="232" height="57" fill="black">
<rect fill="white" x="33" y="7" width="232" height="57"/>
<path d="M51.94 12.36L63.7 53.04H58.3L55.3 42.12H42.58L39.58 53.04H34.3L45.82 12.36H51.94ZM48.94 17.16L48.46 19.62L43.72 37.98H54.16L49.48 19.62L48.94 17.16ZM81.64 10.44V47.64C81.64 48.08 81.72 48.4 81.88 48.6C82.08 48.8 82.44 48.9 82.96 48.9H90.58V53.04H81.34C79.78 53.04 78.6 52.56 77.8 51.6C77 50.64 76.6 49.52 76.6 48.24V14.58H70V10.44H81.64ZM115.18 35.1C115.18 33.78 115.02 32.56 114.7 31.44C114.42 30.32 113.98 29.36 113.38 28.56C112.82 27.72 112.1 27.08 111.22 26.64C110.38 26.16 109.4 25.92 108.28 25.92C107.44 25.92 106.64 26.1 105.88 26.46C105.12 26.78 104.44 27.36 103.84 28.2C103.24 29 102.76 30.08 102.4 31.44C102.08 32.76 101.92 34.4 101.92 36.36C101.92 37.56 101.98 38.8 102.1 40.08C102.22 41.36 102.5 42.54 102.94 43.62C103.38 44.7 104 45.58 104.8 46.26C105.64 46.94 106.78 47.28 108.22 47.28C109.58 47.28 110.7 46.98 111.58 46.38C112.5 45.78 113.22 45.06 113.74 44.22C114.26 43.34 114.62 42.44 114.82 41.52C115.06 40.6 115.18 39.8 115.18 39.12V35.1ZM106.96 58.98C109.84 58.98 111.94 57.98 113.26 55.98C114.62 54.02 115.3 51.16 115.3 47.4V46.8C113.54 49.68 111.02 51.18 107.74 51.3C105.5 51.38 103.66 51.04 102.22 50.28C100.82 49.48 99.7 48.42 98.86 47.1C98.06 45.74 97.5 44.14 97.18 42.3C96.9 40.46 96.76 38.5 96.76 36.42C96.76 34.34 96.96 32.42 97.36 30.66C97.76 28.9 98.4 27.38 99.28 26.1C100.16 24.78 101.28 23.74 102.64 22.98C104.04 22.22 105.74 21.82 107.74 21.78C109.26 21.74 110.64 22.06 111.88 22.74C113.12 23.42 114.14 24.46 114.94 25.86H115.06L115.42 22.44H120.16V46.02C120.16 48.66 119.94 51.04 119.5 53.16C119.06 55.28 118.32 57.08 117.28 58.56C116.28 60.04 114.94 61.18 113.26 61.98C111.58 62.78 109.52 63.18 107.08 63.18C105.64 63.18 104.12 62.98 102.52 62.58C100.92 62.22 99.58 61.7 98.5 61.02V56.46H99.22C99.58 56.74 100.06 57.02 100.66 57.3C101.26 57.62 101.9 57.9 102.58 58.14C103.3 58.38 104.04 58.58 104.8 58.74C105.56 58.9 106.28 58.98 106.96 58.98ZM139 53.82C136.6 53.82 134.6 53.4 133 52.56C131.44 51.72 130.18 50.58 129.22 49.14C128.3 47.7 127.66 46.02 127.3 44.1C126.94 42.14 126.76 40.04 126.76 37.8C126.76 35.56 126.94 33.48 127.3 31.56C127.7 29.6 128.36 27.9 129.28 26.46C130.24 25.02 131.5 23.88 133.06 23.04C134.62 22.2 136.6 21.78 139 21.78C141.32 21.78 143.26 22.2 144.82 23.04C146.42 23.88 147.68 25.02 148.6 26.46C149.56 27.9 150.24 29.6 150.64 31.56C151.04 33.52 151.24 35.6 151.24 37.8C151.24 40 151.04 42.08 150.64 44.04C150.28 45.96 149.62 47.66 148.66 49.14C147.74 50.58 146.5 51.72 144.94 52.56C143.38 53.4 141.4 53.82 139 53.82ZM139 49.74C141.6 49.74 143.44 48.7 144.52 46.62C145.64 44.5 146.2 41.56 146.2 37.8C146.2 33.96 145.64 31 144.52 28.92C143.44 26.84 141.6 25.8 139 25.8C136.36 25.8 134.5 26.84 133.42 28.92C132.34 30.96 131.8 33.92 131.8 37.8C131.8 41.56 132.34 44.5 133.42 46.62C134.5 48.7 136.36 49.74 139 49.74ZM172.12 22.44V48.9H180.76V53.04H157.84V48.9H167.02V26.58H159.94V22.44H172.12ZM165.16 12.18C165.16 11.06 165.56 10.1 166.36 9.3C167.16 8.5 168.1 8.1 169.18 8.1C170.26 8.1 171.2 8.5 172 9.3C172.8 10.1 173.2 11.06 173.2 12.18C173.2 13.3 172.8 14.26 172 15.06C171.2 15.86 170.26 16.26 169.18 16.26C168.1 16.26 167.16 15.86 166.36 15.06C165.56 14.26 165.16 13.3 165.16 12.18ZM210.28 53.04H205.3V34.56C205.3 31.32 204.9 29.06 204.1 27.78C203.3 26.5 201.86 25.86 199.78 25.86C198.82 25.86 197.9 26.12 197.02 26.64C196.18 27.12 195.44 27.8 194.8 28.68C194.2 29.56 193.72 30.62 193.36 31.86C193 33.1 192.82 34.46 192.82 35.94V53.04H187.84V22.44H192.46L192.7 26.52C193.38 25.24 194.44 24.14 195.88 23.22C197.36 22.3 199 21.84 200.8 21.84C202.76 21.84 204.34 22.16 205.54 22.8C206.78 23.44 207.74 24.34 208.42 25.5C209.14 26.62 209.62 27.96 209.86 29.52C210.14 31.08 210.28 32.8 210.28 34.68V53.04ZM235.18 35.1C235.18 33.78 235.02 32.56 234.7 31.44C234.42 30.32 233.98 29.36 233.38 28.56C232.82 27.72 232.1 27.08 231.22 26.64C230.38 26.16 229.4 25.92 228.28 25.92C227.44 25.92 226.64 26.1 225.88 26.46C225.12 26.78 224.44 27.36 223.84 28.2C223.24 29 222.76 30.08 222.4 31.44C222.08 32.76 221.92 34.4 221.92 36.36C221.92 37.56 221.98 38.8 222.1 40.08C222.22 41.36 222.5 42.54 222.94 43.62C223.38 44.7 224 45.58 224.8 46.26C225.64 46.94 226.78 47.28 228.22 47.28C229.58 47.28 230.7 46.98 231.58 46.38C232.5 45.78 233.22 45.06 233.74 44.22C234.26 43.34 234.62 42.44 234.82 41.52C235.06 40.6 235.18 39.8 235.18 39.12V35.1ZM226.96 58.98C229.84 58.98 231.94 57.98 233.26 55.98C234.62 54.02 235.3 51.16 235.3 47.4V46.8C233.54 49.68 231.02 51.18 227.74 51.3C225.5 51.38 223.66 51.04 222.22 50.28C220.82 49.48 219.7 48.42 218.86 47.1C218.06 45.74 217.5 44.14 217.18 42.3C216.9 40.46 216.76 38.5 216.76 36.42C216.76 34.34 216.96 32.42 217.36 30.66C217.76 28.9 218.4 27.38 219.28 26.1C220.16 24.78 221.28 23.74 222.64 22.98C224.04 22.22 225.74 21.82 227.74 21.78C229.26 21.74 230.64 22.06 231.88 22.74C233.12 23.42 234.14 24.46 234.94 25.86H235.06L235.42 22.44H240.16V46.02C240.16 48.66 239.94 51.04 239.5 53.16C239.06 55.28 238.32 57.08 237.28 58.56C236.28 60.04 234.94 61.18 233.26 61.98C231.58 62.78 229.52 63.18 227.08 63.18C225.64 63.18 224.12 62.98 222.52 62.58C220.92 62.22 219.58 61.7 218.5 61.02V56.46H219.22C219.58 56.74 220.06 57.02 220.66 57.3C221.26 57.62 221.9 57.9 222.58 58.14C223.3 58.38 224.04 58.58 224.8 58.74C225.56 58.9 226.28 58.98 226.96 58.98ZM254.38 27.96C254.38 26.72 254.8 25.68 255.64 24.84C256.48 23.96 257.52 23.52 258.76 23.52C260 23.52 261.04 23.96 261.88 24.84C262.76 25.68 263.2 26.72 263.2 27.96C263.2 29.2 262.76 30.24 261.88 31.08C261.04 31.92 260 32.34 258.76 32.34C257.52 32.34 256.48 31.92 255.64 31.08C254.8 30.24 254.38 29.2 254.38 27.96ZM249.4 59.28C250.68 59.28 251.86 59.1 252.94 58.74C254.06 58.38 255.02 57.9 255.82 57.3C256.66 56.74 257.3 56.08 257.74 55.32C258.22 54.6 258.46 53.84 258.46 53.04C258.46 52.12 258.2 51.46 257.68 51.06C257.2 50.66 256.7 50.28 256.18 49.92C255.74 49.6 255.34 49.24 254.98 48.84C254.62 48.44 254.44 47.88 254.44 47.16C254.44 46.28 254.76 45.44 255.4 44.64C256.04 43.8 257.04 43.38 258.4 43.38C259.8 43.38 261.02 43.96 262.06 45.12C263.14 46.24 263.68 48 263.68 50.4C263.68 52.12 263.3 53.7 262.54 55.14C261.78 56.58 260.78 57.82 259.54 58.86C258.3 59.94 256.9 60.76 255.34 61.32C253.78 61.92 252.22 62.22 250.66 62.22L249.4 59.28Z"/>
</mask>
<path d="M51.94 12.36L63.7 53.04H58.3L55.3 42.12H42.58L39.58 53.04H34.3L45.82 12.36H51.94ZM48.94 17.16L48.46 19.62L43.72 37.98H54.16L49.48 19.62L48.94 17.16ZM81.64 10.44V47.64C81.64 48.08 81.72 48.4 81.88 48.6C82.08 48.8 82.44 48.9 82.96 48.9H90.58V53.04H81.34C79.78 53.04 78.6 52.56 77.8 51.6C77 50.64 76.6 49.52 76.6 48.24V14.58H70V10.44H81.64ZM115.18 35.1C115.18 33.78 115.02 32.56 114.7 31.44C114.42 30.32 113.98 29.36 113.38 28.56C112.82 27.72 112.1 27.08 111.22 26.64C110.38 26.16 109.4 25.92 108.28 25.92C107.44 25.92 106.64 26.1 105.88 26.46C105.12 26.78 104.44 27.36 103.84 28.2C103.24 29 102.76 30.08 102.4 31.44C102.08 32.76 101.92 34.4 101.92 36.36C101.92 37.56 101.98 38.8 102.1 40.08C102.22 41.36 102.5 42.54 102.94 43.62C103.38 44.7 104 45.58 104.8 46.26C105.64 46.94 106.78 47.28 108.22 47.28C109.58 47.28 110.7 46.98 111.58 46.38C112.5 45.78 113.22 45.06 113.74 44.22C114.26 43.34 114.62 42.44 114.82 41.52C115.06 40.6 115.18 39.8 115.18 39.12V35.1ZM106.96 58.98C109.84 58.98 111.94 57.98 113.26 55.98C114.62 54.02 115.3 51.16 115.3 47.4V46.8C113.54 49.68 111.02 51.18 107.74 51.3C105.5 51.38 103.66 51.04 102.22 50.28C100.82 49.48 99.7 48.42 98.86 47.1C98.06 45.74 97.5 44.14 97.18 42.3C96.9 40.46 96.76 38.5 96.76 36.42C96.76 34.34 96.96 32.42 97.36 30.66C97.76 28.9 98.4 27.38 99.28 26.1C100.16 24.78 101.28 23.74 102.64 22.98C104.04 22.22 105.74 21.82 107.74 21.78C109.26 21.74 110.64 22.06 111.88 22.74C113.12 23.42 114.14 24.46 114.94 25.86H115.06L115.42 22.44H120.16V46.02C120.16 48.66 119.94 51.04 119.5 53.16C119.06 55.28 118.32 57.08 117.28 58.56C116.28 60.04 114.94 61.18 113.26 61.98C111.58 62.78 109.52 63.18 107.08 63.18C105.64 63.18 104.12 62.98 102.52 62.58C100.92 62.22 99.58 61.7 98.5 61.02V56.46H99.22C99.58 56.74 100.06 57.02 100.66 57.3C101.26 57.62 101.9 57.9 102.58 58.14C103.3 58.38 104.04 58.58 104.8 58.74C105.56 58.9 106.28 58.98 106.96 58.98ZM139 53.82C136.6 53.82 134.6 53.4 133 52.56C131.44 51.72 130.18 50.58 129.22 49.14C128.3 47.7 127.66 46.02 127.3 44.1C126.94 42.14 126.76 40.04 126.76 37.8C126.76 35.56 126.94 33.48 127.3 31.56C127.7 29.6 128.36 27.9 129.28 26.46C130.24 25.02 131.5 23.88 133.06 23.04C134.62 22.2 136.6 21.78 139 21.78C141.32 21.78 143.26 22.2 144.82 23.04C146.42 23.88 147.68 25.02 148.6 26.46C149.56 27.9 150.24 29.6 150.64 31.56C151.04 33.52 151.24 35.6 151.24 37.8C151.24 40 151.04 42.08 150.64 44.04C150.28 45.96 149.62 47.66 148.66 49.14C147.74 50.58 146.5 51.72 144.94 52.56C143.38 53.4 141.4 53.82 139 53.82ZM139 49.74C141.6 49.74 143.44 48.7 144.52 46.62C145.64 44.5 146.2 41.56 146.2 37.8C146.2 33.96 145.64 31 144.52 28.92C143.44 26.84 141.6 25.8 139 25.8C136.36 25.8 134.5 26.84 133.42 28.92C132.34 30.96 131.8 33.92 131.8 37.8C131.8 41.56 132.34 44.5 133.42 46.62C134.5 48.7 136.36 49.74 139 49.74ZM172.12 22.44V48.9H180.76V53.04H157.84V48.9H167.02V26.58H159.94V22.44H172.12ZM165.16 12.18C165.16 11.06 165.56 10.1 166.36 9.3C167.16 8.5 168.1 8.1 169.18 8.1C170.26 8.1 171.2 8.5 172 9.3C172.8 10.1 173.2 11.06 173.2 12.18C173.2 13.3 172.8 14.26 172 15.06C171.2 15.86 170.26 16.26 169.18 16.26C168.1 16.26 167.16 15.86 166.36 15.06C165.56 14.26 165.16 13.3 165.16 12.18ZM210.28 53.04H205.3V34.56C205.3 31.32 204.9 29.06 204.1 27.78C203.3 26.5 201.86 25.86 199.78 25.86C198.82 25.86 197.9 26.12 197.02 26.64C196.18 27.12 195.44 27.8 194.8 28.68C194.2 29.56 193.72 30.62 193.36 31.86C193 33.1 192.82 34.46 192.82 35.94V53.04H187.84V22.44H192.46L192.7 26.52C193.38 25.24 194.44 24.14 195.88 23.22C197.36 22.3 199 21.84 200.8 21.84C202.76 21.84 204.34 22.16 205.54 22.8C206.78 23.44 207.74 24.34 208.42 25.5C209.14 26.62 209.62 27.96 209.86 29.52C210.14 31.08 210.28 32.8 210.28 34.68V53.04ZM235.18 35.1C235.18 33.78 235.02 32.56 234.7 31.44C234.42 30.32 233.98 29.36 233.38 28.56C232.82 27.72 232.1 27.08 231.22 26.64C230.38 26.16 229.4 25.92 228.28 25.92C227.44 25.92 226.64 26.1 225.88 26.46C225.12 26.78 224.44 27.36 223.84 28.2C223.24 29 222.76 30.08 222.4 31.44C222.08 32.76 221.92 34.4 221.92 36.36C221.92 37.56 221.98 38.8 222.1 40.08C222.22 41.36 222.5 42.54 222.94 43.62C223.38 44.7 224 45.58 224.8 46.26C225.64 46.94 226.78 47.28 228.22 47.28C229.58 47.28 230.7 46.98 231.58 46.38C232.5 45.78 233.22 45.06 233.74 44.22C234.26 43.34 234.62 42.44 234.82 41.52C235.06 40.6 235.18 39.8 235.18 39.12V35.1ZM226.96 58.98C229.84 58.98 231.94 57.98 233.26 55.98C234.62 54.02 235.3 51.16 235.3 47.4V46.8C233.54 49.68 231.02 51.18 227.74 51.3C225.5 51.38 223.66 51.04 222.22 50.28C220.82 49.48 219.7 48.42 218.86 47.1C218.06 45.74 217.5 44.14 217.18 42.3C216.9 40.46 216.76 38.5 216.76 36.42C216.76 34.34 216.96 32.42 217.36 30.66C217.76 28.9 218.4 27.38 219.28 26.1C220.16 24.78 221.28 23.74 222.64 22.98C224.04 22.22 225.74 21.82 227.74 21.78C229.26 21.74 230.64 22.06 231.88 22.74C233.12 23.42 234.14 24.46 234.94 25.86H235.06L235.42 22.44H240.16V46.02C240.16 48.66 239.94 51.04 239.5 53.16C239.06 55.28 238.32 57.08 237.28 58.56C236.28 60.04 234.94 61.18 233.26 61.98C231.58 62.78 229.52 63.18 227.08 63.18C225.64 63.18 224.12 62.98 222.52 62.58C220.92 62.22 219.58 61.7 218.5 61.02V56.46H219.22C219.58 56.74 220.06 57.02 220.66 57.3C221.26 57.62 221.9 57.9 222.58 58.14C223.3 58.38 224.04 58.58 224.8 58.74C225.56 58.9 226.28 58.98 226.96 58.98ZM254.38 27.96C254.38 26.72 254.8 25.68 255.64 24.84C256.48 23.96 257.52 23.52 258.76 23.52C260 23.52 261.04 23.96 261.88 24.84C262.76 25.68 263.2 26.72 263.2 27.96C263.2 29.2 262.76 30.24 261.88 31.08C261.04 31.92 260 32.34 258.76 32.34C257.52 32.34 256.48 31.92 255.64 31.08C254.8 30.24 254.38 29.2 254.38 27.96ZM249.4 59.28C250.68 59.28 251.86 59.1 252.94 58.74C254.06 58.38 255.02 57.9 255.82 57.3C256.66 56.74 257.3 56.08 257.74 55.32C258.22 54.6 258.46 53.84 258.46 53.04C258.46 52.12 258.2 51.46 257.68 51.06C257.2 50.66 256.7 50.28 256.18 49.92C255.74 49.6 255.34 49.24 254.98 48.84C254.62 48.44 254.44 47.88 254.44 47.16C254.44 46.28 254.76 45.44 255.4 44.64C256.04 43.8 257.04 43.38 258.4 43.38C259.8 43.38 261.02 43.96 262.06 45.12C263.14 46.24 263.68 48 263.68 50.4C263.68 52.12 263.3 53.7 262.54 55.14C261.78 56.58 260.78 57.82 259.54 58.86C258.3 59.94 256.9 60.76 255.34 61.32C253.78 61.92 252.22 62.22 250.66 62.22L249.4 59.28Z" fill="#212121"/>
<path d="M51.94 12.36L52.4203 12.2211L52.3159 11.86H51.94V12.36ZM63.7 53.04V53.54H64.365L64.1803 52.9011L63.7 53.04ZM58.3 53.04L57.8179 53.1725L57.9188 53.54H58.3V53.04ZM55.3 42.12L55.7821 41.9875L55.6812 41.62H55.3V42.12ZM42.58 42.12V41.62H42.1988L42.0979 41.9875L42.58 42.12ZM39.58 53.04V53.54H39.9612L40.0621 53.1725L39.58 53.04ZM34.3 53.04L33.8189 52.9038L33.6387 53.54H34.3V53.04ZM45.82 12.36V11.86H45.4419L45.3389 12.2238L45.82 12.36ZM48.94 17.16L49.4284 17.0528L48.4493 17.0642L48.94 17.16ZM48.46 19.62L48.9441 19.745L48.9479 19.7305L48.9507 19.7158L48.46 19.62ZM43.72 37.98L43.2359 37.855L43.0745 38.48H43.72V37.98ZM54.16 37.98V38.48H54.8034L54.6445 37.8565L54.16 37.98ZM49.48 19.62L48.9916 19.7272L48.9934 19.7354L48.9955 19.7435L49.48 19.62ZM51.94 12.36L51.4597 12.4989L63.2197 53.1789L63.7 53.04L64.1803 52.9011L52.4203 12.2211L51.94 12.36ZM63.7 53.04V52.54H58.3V53.04V53.54H63.7V53.04ZM58.3 53.04L58.7821 52.9075L55.7821 41.9875L55.3 42.12L54.8179 42.2525L57.8179 53.1725L58.3 53.04ZM55.3 42.12V41.62H42.58V42.12V42.62H55.3V42.12ZM42.58 42.12L42.0979 41.9875L39.0979 52.9075L39.58 53.04L40.0621 53.1725L43.0621 42.2525L42.58 42.12ZM39.58 53.04V52.54H34.3V53.04V53.54H39.58V53.04ZM34.3 53.04L34.7811 53.1762L46.3011 12.4962L45.82 12.36L45.3389 12.2238L33.8189 52.9038L34.3 53.04ZM45.82 12.36V12.86H51.94V12.36V11.86H45.82V12.36ZM48.94 17.16L48.4493 17.0642L47.9693 19.5242L48.46 19.62L48.9507 19.7158L49.4307 17.2558L48.94 17.16ZM48.46 19.62L47.9759 19.495L43.2359 37.855L43.72 37.98L44.2041 38.105L48.9441 19.745L48.46 19.62ZM43.72 37.98V38.48H54.16V37.98V37.48H43.72V37.98ZM54.16 37.98L54.6445 37.8565L49.9645 19.4965L49.48 19.62L48.9955 19.7435L53.6755 38.1035L54.16 37.98ZM49.48 19.62L49.9684 19.5128L49.4284 17.0528L48.94 17.16L48.4516 17.2672L48.9916 19.7272L49.48 19.62ZM81.64 10.44H82.14V9.94H81.64V10.44ZM81.88 48.6L81.4896 48.9123L81.5069 48.934L81.5264 48.9536L81.88 48.6ZM90.58 48.9H91.08V48.4H90.58V48.9ZM90.58 53.04V53.54H91.08V53.04H90.58ZM77.8 51.6L78.1841 51.2799L78.1841 51.2799L77.8 51.6ZM76.6 14.58H77.1V14.08H76.6V14.58ZM70 14.58H69.5V15.08H70V14.58ZM70 10.44V9.94H69.5V10.44H70ZM81.64 10.44H81.14V47.64H81.64H82.14V10.44H81.64ZM81.64 47.64H81.14C81.14 48.1198 81.2233 48.5795 81.4896 48.9123L81.88 48.6L82.2704 48.2877C82.2167 48.2205 82.14 48.0402 82.14 47.64H81.64ZM81.88 48.6L81.5264 48.9536C81.8731 49.3002 82.4079 49.4 82.96 49.4V48.9V48.4C82.4721 48.4 82.2869 48.2998 82.2336 48.2464L81.88 48.6ZM82.96 48.9V49.4H90.58V48.9V48.4H82.96V48.9ZM90.58 48.9H90.08V53.04H90.58H91.08V48.9H90.58ZM90.58 53.04V52.54H81.34V53.04V53.54H90.58V53.04ZM81.34 53.04V52.54C79.8883 52.54 78.8661 52.0983 78.1841 51.2799L77.8 51.6L77.4159 51.9201C78.3339 53.0217 79.6717 53.54 81.34 53.54V53.04ZM77.8 51.6L78.1841 51.2799C77.461 50.4121 77.1 49.4061 77.1 48.24H76.6H76.1C76.1 49.6339 76.539 50.8679 77.4159 51.9201L77.8 51.6ZM76.6 48.24H77.1V14.58H76.6H76.1V48.24H76.6ZM76.6 14.58V14.08H70V14.58V15.08H76.6V14.58ZM70 14.58H70.5V10.44H70H69.5V14.58H70ZM70 10.44V10.94H81.64V10.44V9.94H70V10.44ZM114.7 31.44L114.215 31.5613L114.217 31.5693L114.219 31.5774L114.7 31.44ZM113.38 28.56L112.964 28.8373L112.972 28.8489L112.98 28.86L113.38 28.56ZM111.22 26.64L110.972 27.0741L110.984 27.081L110.996 27.0872L111.22 26.64ZM105.88 26.46L106.074 26.9208L106.084 26.9166L106.094 26.9119L105.88 26.46ZM103.84 28.2L104.24 28.5001L104.247 28.4906L103.84 28.2ZM102.4 31.44L101.917 31.312L101.914 31.3222L102.4 31.44ZM102.1 40.08L102.598 40.0333L102.598 40.0333L102.1 40.08ZM102.94 43.62L102.477 43.8086L102.477 43.8086L102.94 43.62ZM104.8 46.26L104.476 46.6411L104.485 46.6486L104.8 46.26ZM111.58 46.38L111.307 45.9611L111.298 45.9669L111.58 46.38ZM113.74 44.22L114.165 44.4832L114.17 44.4744L113.74 44.22ZM114.82 41.52L114.336 41.3938L114.334 41.4037L114.331 41.4138L114.82 41.52ZM113.26 55.98L112.849 55.6949L112.843 55.7046L113.26 55.98ZM115.3 46.8H115.8V45.023L114.873 46.5393L115.3 46.8ZM107.74 51.3L107.758 51.7997L107.758 51.7997L107.74 51.3ZM102.22 50.28L101.972 50.7141L101.979 50.7183L101.987 50.7222L102.22 50.28ZM98.86 47.1L98.429 47.3535L98.4335 47.3611L98.4382 47.3684L98.86 47.1ZM97.18 42.3L96.6856 42.3752L96.6874 42.3857L97.18 42.3ZM99.28 26.1L99.6921 26.3833L99.696 26.3773L99.28 26.1ZM102.64 22.98L102.401 22.5405L102.396 22.5435L102.64 22.98ZM107.74 21.78L107.75 22.2799L107.753 22.2798L107.74 21.78ZM111.88 22.74L111.64 23.1784L111.64 23.1784L111.88 22.74ZM114.94 25.86L114.506 26.1081L114.65 26.36H114.94V25.86ZM115.06 25.86V26.36H115.51L115.557 25.9123L115.06 25.86ZM115.42 22.44V21.94H114.97L114.923 22.3877L115.42 22.44ZM120.16 22.44H120.66V21.94H120.16V22.44ZM119.5 53.16L119.01 53.0584L119.01 53.0584L119.5 53.16ZM117.28 58.56L116.871 58.2725L116.866 58.2801L117.28 58.56ZM113.26 61.98L113.045 61.5286L113.045 61.5286L113.26 61.98ZM102.52 62.58L102.641 62.0948L102.63 62.0922L102.52 62.58ZM98.5 61.02H98V61.296L98.2336 61.4431L98.5 61.02ZM98.5 56.46V55.96H98V56.46H98.5ZM99.22 56.46L99.527 56.0653L99.3916 55.96H99.22V56.46ZM100.66 57.3L100.895 56.8588L100.884 56.8525L100.871 56.8469L100.66 57.3ZM102.58 58.14L102.414 58.6116L102.422 58.6143L102.58 58.14ZM104.8 58.74L104.697 59.2293L104.697 59.2293L104.8 58.74ZM115.18 35.1H115.68C115.68 33.7396 115.515 32.4728 115.181 31.3026L114.7 31.44L114.219 31.5774C114.525 32.6472 114.68 33.8204 114.68 35.1H115.18ZM114.7 31.44L115.185 31.3187C114.891 30.144 114.426 29.1209 113.78 28.26L113.38 28.56L112.98 28.86C113.534 29.5991 113.949 30.496 114.215 31.5613L114.7 31.44ZM113.38 28.56L113.796 28.2826C113.189 27.3722 112.404 26.6727 111.444 26.1928L111.22 26.64L110.996 27.0872C111.796 27.4872 112.451 28.0678 112.964 28.8373L113.38 28.56ZM111.22 26.64L111.468 26.2059C110.541 25.6763 109.473 25.42 108.28 25.42V25.92V26.42C109.327 26.42 110.219 26.6437 110.972 27.0741L111.22 26.64ZM108.28 25.92V25.42C107.366 25.42 106.493 25.6165 105.666 26.0081L105.88 26.46L106.094 26.9119C106.787 26.5835 107.514 26.42 108.28 26.42V25.92ZM105.88 26.46L105.686 25.9992C104.822 26.3631 104.073 27.0129 103.433 27.9094L103.84 28.2L104.247 28.4906C104.807 27.7071 105.418 27.1968 106.074 26.9208L105.88 26.46ZM103.84 28.2L103.44 27.9C102.789 28.7678 102.287 29.9133 101.917 31.3121L102.4 31.44L102.883 31.5679C103.233 30.2467 103.691 29.2322 104.24 28.5L103.84 28.2ZM102.4 31.44L101.914 31.3222C101.582 32.6936 101.42 34.3762 101.42 36.36H101.92H102.42C102.42 34.4238 102.578 32.8264 102.886 31.5578L102.4 31.44ZM101.92 36.36H101.42C101.42 37.5766 101.481 38.8322 101.602 40.1267L102.1 40.08L102.598 40.0333C102.479 38.7678 102.42 37.5434 102.42 36.36H101.92ZM102.1 40.08L101.602 40.1267C101.726 41.4505 102.017 42.6789 102.477 43.8086L102.94 43.62L103.403 43.4314C102.983 42.4011 102.714 41.2695 102.598 40.0333L102.1 40.08ZM102.94 43.62L102.477 43.8086C102.944 44.9546 103.608 45.9034 104.476 46.641L104.8 46.26L105.124 45.879C104.392 45.2566 103.816 44.4454 103.403 43.4314L102.94 43.62ZM104.8 46.26L104.485 46.6486C105.44 47.4215 106.704 47.78 108.22 47.78V47.28V46.78C106.856 46.78 105.84 46.4585 105.115 45.8714L104.8 46.26ZM108.22 47.28V47.78C109.653 47.78 110.878 47.4636 111.862 46.7931L111.58 46.38L111.298 45.9669C110.522 46.4964 109.507 46.78 108.22 46.78V47.28ZM111.58 46.38L111.853 46.7988C112.828 46.1632 113.602 45.3922 114.165 44.4832L113.74 44.22L113.315 43.9568C112.838 44.7277 112.172 45.3968 111.307 45.9612L111.58 46.38ZM113.74 44.22L114.17 44.4744C114.715 43.5523 115.096 42.6027 115.309 41.6262L114.82 41.52L114.331 41.4138C114.144 42.2773 113.805 43.1277 113.31 43.9656L113.74 44.22ZM114.82 41.52L115.304 41.6462C115.551 40.7 115.68 39.8557 115.68 39.12H115.18H114.68C114.68 39.7443 114.569 40.5 114.336 41.3938L114.82 41.52ZM115.18 39.12H115.68V35.1H115.18H114.68V39.12H115.18ZM106.96 58.98V59.48C109.969 59.48 112.245 58.4253 113.677 56.2554L113.26 55.98L112.843 55.7046C111.635 57.5347 109.711 58.48 106.96 58.48V58.98ZM113.26 55.98L113.671 56.265C115.114 54.1857 115.8 51.2077 115.8 47.4H115.3H114.8C114.8 51.1123 114.126 53.8543 112.849 55.695L113.26 55.98ZM115.3 47.4H115.8V46.8H115.3H114.8V47.4H115.3ZM115.3 46.8L114.873 46.5393C113.198 49.2811 110.829 50.6867 107.722 50.8003L107.74 51.3L107.758 51.7997C111.211 51.6733 113.882 50.0789 115.727 47.0607L115.3 46.8ZM107.74 51.3L107.722 50.8003C105.538 50.8783 103.792 50.5445 102.453 49.8378L102.22 50.28L101.987 50.7222C103.528 51.5355 105.462 51.8817 107.758 51.7997L107.74 51.3ZM102.22 50.28L102.468 49.8459C101.136 49.0849 100.077 48.0809 99.2818 46.8316L98.86 47.1L98.4382 47.3684C99.3231 48.7591 100.504 49.8751 101.972 50.7141L102.22 50.28ZM98.86 47.1L99.291 46.8465C98.5265 45.5468 97.9842 44.0058 97.6726 42.2143L97.18 42.3L96.6874 42.3857C97.0158 44.2742 97.5935 45.9332 98.429 47.3535L98.86 47.1ZM97.18 42.3L97.6743 42.2248C97.3985 40.4124 97.26 38.4777 97.26 36.42H96.76H96.26C96.26 38.5223 96.4015 40.5076 96.6857 42.3752L97.18 42.3ZM96.76 36.42H97.26C97.26 34.3718 97.457 32.4894 97.8476 30.7708L97.36 30.66L96.8724 30.5492C96.463 32.3506 96.26 34.3082 96.26 36.42H96.76ZM97.36 30.66L97.8476 30.7708C98.2358 29.0627 98.8532 27.6033 99.692 26.3833L99.28 26.1L98.868 25.8167C97.9468 27.1566 97.2842 28.7373 96.8724 30.5492L97.36 30.66ZM99.28 26.1L99.696 26.3773C100.533 25.122 101.594 24.1371 102.884 23.4165L102.64 22.98L102.396 22.5435C100.966 23.3429 99.7871 24.438 98.864 25.8226L99.28 26.1ZM102.64 22.98L102.879 23.4194C104.193 22.7061 105.81 22.3187 107.75 22.2799L107.74 21.78L107.73 21.2801C105.67 21.3213 103.887 21.7339 102.401 22.5406L102.64 22.98ZM107.74 21.78L107.753 22.2798C109.192 22.242 110.483 22.5441 111.64 23.1784L111.88 22.74L112.12 22.3016C110.797 21.5758 109.328 21.238 107.727 21.2802L107.74 21.78ZM111.88 22.74L111.64 23.1784C112.788 23.8081 113.745 24.7767 114.506 26.1081L114.94 25.86L115.374 25.6119C114.535 24.1433 113.452 23.0319 112.12 22.3016L111.88 22.74ZM114.94 25.86V26.36H115.06V25.86V25.36H114.94V25.86ZM115.06 25.86L115.557 25.9123L115.917 22.4923L115.42 22.44L114.923 22.3877L114.563 25.8077L115.06 25.86ZM115.42 22.44V22.94H120.16V22.44V21.94H115.42V22.44ZM120.16 22.44H119.66V46.02H120.16H120.66V22.44H120.16ZM120.16 46.02H119.66C119.66 48.633 119.442 50.9781 119.01 53.0584L119.5 53.16L119.99 53.2616C120.438 51.1019 120.66 48.687 120.66 46.02H120.16ZM119.5 53.16L119.01 53.0584C118.582 55.1245 117.865 56.8582 116.871 58.2725L117.28 58.56L117.689 58.8475C118.775 57.3018 119.538 55.4355 119.99 53.2616L119.5 53.16ZM117.28 58.56L116.866 58.2801C115.918 59.683 114.648 60.7653 113.045 61.5286L113.26 61.98L113.475 62.4314C115.232 61.5947 116.642 60.397 117.694 58.8399L117.28 58.56ZM113.26 61.98L113.045 61.5286C111.45 62.2883 109.468 62.68 107.08 62.68V63.18V63.68C109.572 63.68 111.71 63.2717 113.475 62.4314L113.26 61.98ZM107.08 63.18V62.68C105.686 62.68 104.207 62.4864 102.641 62.0949L102.52 62.58L102.399 63.0651C104.033 63.4736 105.594 63.68 107.08 63.68V63.18ZM102.52 62.58L102.63 62.0922C101.07 61.7413 99.7867 61.2393 98.7664 60.5969L98.5 61.02L98.2336 61.4431C99.3733 62.1607 100.77 62.6987 102.41 63.0678L102.52 62.58ZM98.5 61.02H99V56.46H98.5H98V61.02H98.5ZM98.5 56.46V56.96H99.22V56.46V55.96H98.5V56.46ZM99.22 56.46L98.913 56.8547C99.3126 57.1654 99.8284 57.4637 100.449 57.7531L100.66 57.3L100.871 56.8469C100.292 56.5763 99.8474 56.3146 99.527 56.0653L99.22 56.46ZM100.66 57.3L100.425 57.7412C101.048 58.0737 101.711 58.3636 102.414 58.6115L102.58 58.14L102.746 57.6685C102.089 57.4364 101.472 57.1663 100.895 56.8588L100.66 57.3ZM102.58 58.14L102.422 58.6143C103.16 58.8605 103.919 59.0654 104.697 59.2293L104.8 58.74L104.903 58.2507C104.161 58.0946 103.44 57.8995 102.738 57.6657L102.58 58.14ZM104.8 58.74L104.697 59.2293C105.486 59.3954 106.241 59.48 106.96 59.48V58.98V58.48C106.319 58.48 105.634 58.4046 104.903 58.2507L104.8 58.74ZM133 52.56L132.763 53.0003L132.768 53.0027L133 52.56ZM129.22 49.14L128.799 49.4092L128.804 49.4174L129.22 49.14ZM127.3 44.1L126.808 44.1903L126.809 44.1921L127.3 44.1ZM127.3 31.56L126.81 31.46L126.809 31.4679L127.3 31.56ZM129.28 26.46L128.864 26.1826L128.859 26.1908L129.28 26.46ZM133.06 23.04L132.823 22.5998L132.823 22.5998L133.06 23.04ZM144.82 23.04L144.583 23.4803L144.588 23.4827L144.82 23.04ZM148.6 26.46L148.179 26.7292L148.184 26.7373L148.6 26.46ZM150.64 31.56L151.13 31.46L151.13 31.46L150.64 31.56ZM150.64 44.04L150.15 43.94L150.149 43.9479L150.64 44.04ZM148.66 49.14L148.241 48.8679L148.239 48.8708L148.66 49.14ZM144.94 52.56L145.177 53.0002L145.177 53.0002L144.94 52.56ZM144.52 46.62L144.078 46.3864L144.076 46.3896L144.52 46.62ZM144.52 28.92L144.076 29.1504L144.08 29.157L144.52 28.92ZM133.42 28.92L133.862 29.154L133.864 29.1504L133.42 28.92ZM133.42 46.62L132.974 46.847L132.976 46.8504L133.42 46.62ZM139 53.82V53.32C136.655 53.32 134.741 52.9094 133.232 52.1173L133 52.56L132.768 53.0027C134.459 53.8906 136.545 54.32 139 54.32V53.82ZM133 52.56L133.237 52.1198C131.747 51.3176 130.549 50.2329 129.636 48.8626L129.22 49.14L128.804 49.4174C129.811 50.9271 131.133 52.1224 132.763 53.0002L133 52.56ZM129.22 49.14L129.641 48.8708C128.76 47.492 128.141 45.8738 127.791 44.0079L127.3 44.1L126.809 44.1921C127.179 46.1662 127.84 47.908 128.799 49.4092L129.22 49.14ZM127.3 44.1L127.792 44.0097C127.438 42.0829 127.26 40.0134 127.26 37.8H126.76H126.26C126.26 40.0666 126.442 42.1971 126.808 44.1903L127.3 44.1ZM126.76 37.8H127.26C127.26 35.5865 127.438 33.5377 127.791 31.6521L127.3 31.56L126.809 31.4679C126.442 33.4223 126.26 35.5335 126.26 37.8H126.76ZM127.3 31.56L127.79 31.66C128.18 29.75 128.82 28.1095 129.701 26.7292L129.28 26.46L128.859 26.1908C127.9 27.6905 127.22 29.45 126.81 31.46L127.3 31.56ZM129.28 26.46L129.696 26.7373C130.609 25.3671 131.807 24.2824 133.297 23.4802L133.06 23.04L132.823 22.5998C131.193 23.4776 129.871 24.6729 128.864 26.1826L129.28 26.46ZM133.06 23.04L133.297 23.4802C134.763 22.6909 136.655 22.28 139 22.28V21.78V21.28C136.545 21.28 134.477 21.7091 132.823 22.5998L133.06 23.04ZM139 21.78V22.28C141.262 22.28 143.115 22.6897 144.583 23.4802L144.82 23.04L145.057 22.5998C143.405 21.7103 141.378 21.28 139 21.28V21.78ZM144.82 23.04L144.588 23.4827C146.115 24.2847 147.308 25.3667 148.179 26.7292L148.6 26.46L149.021 26.1908C148.052 24.6733 146.725 23.4753 145.052 22.5973L144.82 23.04ZM148.6 26.46L148.184 26.7373C149.103 28.1158 149.761 29.7536 150.15 31.66L150.64 31.56L151.13 31.46C150.719 29.4464 150.017 27.6842 149.016 26.1826L148.6 26.46ZM150.64 31.56L150.15 31.66C150.543 33.584 150.74 35.6303 150.74 37.8H151.24H151.74C151.74 35.5697 151.537 33.456 151.13 31.46L150.64 31.56ZM151.24 37.8H150.74C150.74 39.9697 150.543 42.016 150.15 43.94L150.64 44.04L151.13 44.14C151.537 42.144 151.74 40.0303 151.74 37.8H151.24ZM150.64 44.04L150.149 43.9479C149.799 45.8106 149.161 47.4482 148.241 48.8679L148.66 49.14L149.079 49.4121C150.079 47.8718 150.761 46.1094 151.131 44.1321L150.64 44.04ZM148.66 49.14L148.239 48.8708C147.366 50.2363 146.191 51.3186 144.703 52.1198L144.94 52.56L145.177 53.0002C146.809 52.1214 148.114 50.9237 149.081 49.4092L148.66 49.14ZM144.94 52.56L144.703 52.1198C143.237 52.9091 141.345 53.32 139 53.32V53.82V54.32C141.455 54.32 143.523 53.8909 145.177 53.0002L144.94 52.56ZM139 49.74V50.24C140.367 50.24 141.566 49.9664 142.576 49.3953C143.589 48.8225 144.384 47.9667 144.964 46.8504L144.52 46.62L144.076 46.3896C143.576 47.3533 142.911 48.0575 142.084 48.5247C141.254 48.9936 140.233 49.24 139 49.24V49.74ZM144.52 46.62L144.962 46.8536C146.136 44.632 146.7 41.5996 146.7 37.8H146.2H145.7C145.7 41.5204 145.144 44.368 144.078 46.3864L144.52 46.62ZM146.2 37.8H146.7C146.7 33.9234 146.137 30.8678 144.96 28.6829L144.52 28.92L144.08 29.157C145.143 31.1322 145.7 33.9966 145.7 37.8H146.2ZM144.52 28.92L144.964 28.6896C144.384 27.5733 143.589 26.7175 142.576 26.1447C141.566 25.5736 140.367 25.3 139 25.3V25.8V26.3C140.233 26.3 141.254 26.5464 142.084 27.0153C142.911 27.4825 143.576 28.1867 144.076 29.1504L144.52 28.92ZM139 25.8V25.3C137.615 25.3 136.401 25.573 135.381 26.1436C134.357 26.716 133.557 27.5719 132.976 28.6896L133.42 28.92L133.864 29.1504C134.363 28.1881 135.033 27.484 135.869 27.0164C136.709 26.547 137.745 26.3 139 26.3V25.8ZM133.42 28.92L132.978 28.6861C131.842 30.8315 131.3 33.8872 131.3 37.8H131.8H132.3C132.3 33.9528 132.838 31.0885 133.862 29.1539L133.42 28.92ZM131.8 37.8H131.3C131.3 41.5978 131.844 44.6274 132.974 46.847L133.42 46.62L133.866 46.393C132.836 44.3726 132.3 41.5222 132.3 37.8H131.8ZM133.42 46.62L132.976 46.8504C133.557 47.9681 134.357 48.824 135.381 49.3964C136.401 49.967 137.615 50.24 139 50.24V49.74V49.24C137.745 49.24 136.709 48.993 135.869 48.5236C135.033 48.056 134.363 47.3519 133.864 46.3896L133.42 46.62ZM172.12 22.44H172.62V21.94H172.12V22.44ZM172.12 48.9H171.62V49.4H172.12V48.9ZM180.76 48.9H181.26V48.4H180.76V48.9ZM180.76 53.04V53.54H181.26V53.04H180.76ZM157.84 53.04H157.34V53.54H157.84V53.04ZM157.84 48.9V48.4H157.34V48.9H157.84ZM167.02 48.9V49.4H167.52V48.9H167.02ZM167.02 26.58H167.52V26.08H167.02V26.58ZM159.94 26.58H159.44V27.08H159.94V26.58ZM159.94 22.44V21.94H159.44V22.44H159.94ZM166.36 9.3L166.006 8.94644L166.006 8.94644L166.36 9.3ZM172 9.3L172.354 8.94644L172.354 8.94644L172 9.3ZM172 15.06L171.646 14.7064L171.646 14.7064L172 15.06ZM166.36 15.06L166.714 14.7064L166.714 14.7064L166.36 15.06ZM172.12 22.44H171.62V48.9H172.12H172.62V22.44H172.12ZM172.12 48.9V49.4H180.76V48.9V48.4H172.12V48.9ZM180.76 48.9H180.26V53.04H180.76H181.26V48.9H180.76ZM180.76 53.04V52.54H157.84V53.04V53.54H180.76V53.04ZM157.84 53.04H158.34V48.9H157.84H157.34V53.04H157.84ZM157.84 48.9V49.4H167.02V48.9V48.4H157.84V48.9ZM167.02 48.9H167.52V26.58H167.02H166.52V48.9H167.02ZM167.02 26.58V26.08H159.94V26.58V27.08H167.02V26.58ZM159.94 26.58H160.44V22.44H159.94H159.44V26.58H159.94ZM159.94 22.44V22.94H172.12V22.44V21.94H159.94V22.44ZM165.16 12.18H165.66C165.66 11.1941 166.006 10.3609 166.714 9.65355L166.36 9.3L166.006 8.94644C165.114 9.83914 164.66 10.9259 164.66 12.18H165.16ZM166.36 9.3L166.714 9.65355C167.425 8.94235 168.239 8.6 169.18 8.6V8.1V7.6C167.961 7.6 166.895 8.05764 166.006 8.94644L166.36 9.3ZM169.18 8.1V8.6C170.121 8.6 170.935 8.94235 171.646 9.65355L172 9.3L172.354 8.94644C171.465 8.05764 170.399 7.6 169.18 7.6V8.1ZM172 9.3L171.646 9.65355C172.354 10.3609 172.7 11.1941 172.7 12.18H173.2H173.7C173.7 10.9259 173.246 9.83914 172.354 8.94644L172 9.3ZM173.2 12.18H172.7C172.7 13.1659 172.354 13.9991 171.646 14.7064L172 15.06L172.354 15.4136C173.246 14.5209 173.7 13.4341 173.7 12.18H173.2ZM172 15.06L171.646 14.7064C170.935 15.4176 170.121 15.76 169.18 15.76V16.26V16.76C170.399 16.76 171.465 16.3024 172.354 15.4136L172 15.06ZM169.18 16.26V15.76C168.239 15.76 167.425 15.4176 166.714 14.7064L166.36 15.06L166.006 15.4136C166.895 16.3024 167.961 16.76 169.18 16.76V16.26ZM166.36 15.06L166.714 14.7064C166.006 13.9991 165.66 13.1659 165.66 12.18H165.16H164.66C164.66 13.4341 165.114 14.5209 166.006 15.4136L166.36 15.06ZM210.28 53.04V53.54H210.78V53.04H210.28ZM205.3 53.04H204.8V53.54H205.3V53.04ZM204.1 27.78L203.676 28.045L203.676 28.045L204.1 27.78ZM197.02 26.64L197.268 27.0742L197.274 27.0705L197.02 26.64ZM194.8 28.68L194.396 28.3859L194.391 28.3921L194.387 28.3983L194.8 28.68ZM192.82 53.04V53.54H193.32V53.04H192.82ZM187.84 53.04H187.34V53.54H187.84V53.04ZM187.84 22.44V21.94H187.34V22.44H187.84ZM192.46 22.44L192.959 22.4106L192.931 21.94H192.46V22.44ZM192.7 26.52L192.201 26.5494L192.306 28.3283L193.142 26.7546L192.7 26.52ZM195.88 23.22L195.616 22.7953L195.611 22.7987L195.88 23.22ZM205.54 22.8L205.305 23.2412L205.311 23.2443L205.54 22.8ZM208.42 25.5L207.989 25.7529L207.994 25.7617L207.999 25.7704L208.42 25.5ZM209.86 29.52L209.366 29.5961L209.368 29.6083L209.86 29.52ZM210.28 53.04V52.54H205.3V53.04V53.54H210.28V53.04ZM205.3 53.04H205.8V34.56H205.3H204.8V53.04H205.3ZM205.3 34.56H205.8C205.8 31.3115 205.405 28.9245 204.524 27.515L204.1 27.78L203.676 28.045C204.395 29.1955 204.8 31.3285 204.8 34.56H205.3ZM204.1 27.78L204.524 27.515C203.6 26.0366 201.96 25.36 199.78 25.36V25.86V26.36C201.76 26.36 203 26.9634 203.676 28.045L204.1 27.78ZM199.78 25.86V25.36C198.725 25.36 197.717 25.6471 196.766 26.2095L197.02 26.64L197.274 27.0705C198.083 26.5929 198.915 26.36 199.78 26.36V25.86ZM197.02 26.64L196.772 26.2059C195.863 26.7251 195.072 27.4559 194.396 28.3859L194.8 28.68L195.204 28.9741C195.808 28.1441 196.497 27.5149 197.268 27.0741L197.02 26.64ZM194.8 28.68L194.387 28.3983C193.752 29.33 193.252 30.4403 192.88 31.7206L193.36 31.86L193.84 31.9994C194.188 30.7997 194.648 29.79 195.213 28.9617L194.8 28.68ZM193.36 31.86L192.88 31.7206C192.505 33.0119 192.32 34.4196 192.32 35.94H192.82H193.32C193.32 34.5004 193.495 33.1881 193.84 31.9994L193.36 31.86ZM192.82 35.94H192.32V53.04H192.82H193.32V35.94H192.82ZM192.82 53.04V52.54H187.84V53.04V53.54H192.82V53.04ZM187.84 53.04H188.34V22.44H187.84H187.34V53.04H187.84ZM187.84 22.44V22.94H192.46V22.44V21.94H187.84V22.44ZM192.46 22.44L191.961 22.4694L192.201 26.5494L192.7 26.52L193.199 26.4906L192.959 22.4106L192.46 22.44ZM192.7 26.52L193.142 26.7546C193.774 25.5632 194.769 24.5233 196.149 23.6413L195.88 23.22L195.611 22.7987C194.111 23.7567 192.986 24.9168 192.258 26.2854L192.7 26.52ZM195.88 23.22L196.144 23.6446C197.542 22.7756 199.09 22.34 200.8 22.34V21.84V21.34C198.91 21.34 197.178 21.8244 195.616 22.7954L195.88 23.22ZM200.8 21.84V22.34C202.712 22.34 204.202 22.6531 205.305 23.2412L205.54 22.8L205.775 22.3588C204.478 21.6669 202.808 21.34 200.8 21.34V21.84ZM205.54 22.8L205.311 23.2443C206.47 23.8426 207.358 24.6777 207.989 25.7529L208.42 25.5L208.851 25.2471C208.122 24.0023 207.09 23.0374 205.769 22.3557L205.54 22.8ZM208.42 25.5L207.999 25.7704C208.675 26.8216 209.135 28.0926 209.366 29.596L209.86 29.52L210.354 29.444C210.105 27.8274 209.605 26.4184 208.841 25.2296L208.42 25.5ZM209.86 29.52L209.368 29.6083C209.642 31.1344 209.78 32.8243 209.78 34.68H210.28H210.78C210.78 32.7757 210.638 31.0256 210.352 29.4317L209.86 29.52ZM210.28 34.68H209.78V53.04H210.28H210.78V34.68H210.28ZM234.7 31.44L234.215 31.5613L234.217 31.5693L234.219 31.5774L234.7 31.44ZM233.38 28.56L232.964 28.8373L232.972 28.8489L232.98 28.86L233.38 28.56ZM231.22 26.64L230.972 27.0741L230.984 27.081L230.996 27.0872L231.22 26.64ZM225.88 26.46L226.074 26.9208L226.084 26.9166L226.094 26.9119L225.88 26.46ZM223.84 28.2L224.24 28.5001L224.247 28.4906L223.84 28.2ZM222.4 31.44L221.917 31.312L221.914 31.3222L222.4 31.44ZM222.1 40.08L222.598 40.0333L222.598 40.0333L222.1 40.08ZM222.94 43.62L222.477 43.8086L222.477 43.8086L222.94 43.62ZM224.8 46.26L224.476 46.6411L224.485 46.6486L224.8 46.26ZM231.58 46.38L231.307 45.9611L231.298 45.9669L231.58 46.38ZM233.74 44.22L234.165 44.4832L234.17 44.4744L233.74 44.22ZM234.82 41.52L234.336 41.3938L234.334 41.4037L234.331 41.4138L234.82 41.52ZM233.26 55.98L232.849 55.6949L232.843 55.7046L233.26 55.98ZM235.3 46.8H235.8V45.023L234.873 46.5393L235.3 46.8ZM227.74 51.3L227.758 51.7997L227.758 51.7997L227.74 51.3ZM222.22 50.28L221.972 50.7141L221.979 50.7183L221.987 50.7222L222.22 50.28ZM218.86 47.1L218.429 47.3535L218.433 47.3611L218.438 47.3684L218.86 47.1ZM217.18 42.3L216.686 42.3752L216.687 42.3857L217.18 42.3ZM219.28 26.1L219.692 26.3833L219.696 26.3773L219.28 26.1ZM222.64 22.98L222.401 22.5405L222.396 22.5435L222.64 22.98ZM227.74 21.78L227.75 22.2799L227.753 22.2798L227.74 21.78ZM231.88 22.74L231.64 23.1784L231.64 23.1784L231.88 22.74ZM234.94 25.86L234.506 26.1081L234.65 26.36H234.94V25.86ZM235.06 25.86V26.36H235.51L235.557 25.9123L235.06 25.86ZM235.42 22.44V21.94H234.97L234.923 22.3877L235.42 22.44ZM240.16 22.44H240.66V21.94H240.16V22.44ZM239.5 53.16L239.01 53.0584L239.01 53.0584L239.5 53.16ZM237.28 58.56L236.871 58.2725L236.866 58.2801L237.28 58.56ZM233.26 61.98L233.045 61.5286L233.045 61.5286L233.26 61.98ZM222.52 62.58L222.641 62.0948L222.63 62.0922L222.52 62.58ZM218.5 61.02H218V61.296L218.234 61.4431L218.5 61.02ZM218.5 56.46V55.96H218V56.46H218.5ZM219.22 56.46L219.527 56.0653L219.392 55.96H219.22V56.46ZM220.66 57.3L220.895 56.8588L220.884 56.8525L220.871 56.8469L220.66 57.3ZM222.58 58.14L222.414 58.6116L222.422 58.6143L222.58 58.14ZM224.8 58.74L224.697 59.2293L224.697 59.2293L224.8 58.74ZM235.18 35.1H235.68C235.68 33.7396 235.515 32.4728 235.181 31.3026L234.7 31.44L234.219 31.5774C234.525 32.6472 234.68 33.8204 234.68 35.1H235.18ZM234.7 31.44L235.185 31.3187C234.891 30.144 234.426 29.1209 233.78 28.26L233.38 28.56L232.98 28.86C233.534 29.5991 233.949 30.496 234.215 31.5613L234.7 31.44ZM233.38 28.56L233.796 28.2826C233.189 27.3722 232.404 26.6727 231.444 26.1928L231.22 26.64L230.996 27.0872C231.796 27.4872 232.451 28.0678 232.964 28.8373L233.38 28.56ZM231.22 26.64L231.468 26.2059C230.541 25.6763 229.473 25.42 228.28 25.42V25.92V26.42C229.327 26.42 230.219 26.6437 230.972 27.0741L231.22 26.64ZM228.28 25.92V25.42C227.366 25.42 226.493 25.6165 225.666 26.0081L225.88 26.46L226.094 26.9119C226.787 26.5835 227.514 26.42 228.28 26.42V25.92ZM225.88 26.46L225.686 25.9992C224.822 26.3631 224.073 27.0129 223.433 27.9094L223.84 28.2L224.247 28.4906C224.807 27.7071 225.418 27.1968 226.074 26.9208L225.88 26.46ZM223.84 28.2L223.44 27.9C222.789 28.7678 222.287 29.9133 221.917 31.3121L222.4 31.44L222.883 31.5679C223.233 30.2467 223.691 29.2322 224.24 28.5L223.84 28.2ZM222.4 31.44L221.914 31.3222C221.582 32.6936 221.42 34.3762 221.42 36.36H221.92H222.42C222.42 34.4238 222.578 32.8264 222.886 31.5578L222.4 31.44ZM221.92 36.36H221.42C221.42 37.5766 221.481 38.8322 221.602 40.1267L222.1 40.08L222.598 40.0333C222.479 38.7678 222.42 37.5434 222.42 36.36H221.92ZM222.1 40.08L221.602 40.1267C221.726 41.4505 222.017 42.6789 222.477 43.8086L222.94 43.62L223.403 43.4314C222.983 42.4011 222.714 41.2695 222.598 40.0333L222.1 40.08ZM222.94 43.62L222.477 43.8086C222.944 44.9546 223.608 45.9034 224.476 46.641L224.8 46.26L225.124 45.879C224.392 45.2566 223.816 44.4454 223.403 43.4314L222.94 43.62ZM224.8 46.26L224.485 46.6486C225.44 47.4215 226.704 47.78 228.22 47.78V47.28V46.78C226.856 46.78 225.84 46.4585 225.115 45.8714L224.8 46.26ZM228.22 47.28V47.78C229.653 47.78 230.878 47.4636 231.862 46.7931L231.58 46.38L231.298 45.9669C230.522 46.4964 229.507 46.78 228.22 46.78V47.28ZM231.58 46.38L231.853 46.7988C232.828 46.1632 233.602 45.3922 234.165 44.4832L233.74 44.22L233.315 43.9568C232.838 44.7277 232.172 45.3968 231.307 45.9612L231.58 46.38ZM233.74 44.22L234.17 44.4744C234.715 43.5523 235.096 42.6027 235.309 41.6262L234.82 41.52L234.331 41.4138C234.144 42.2773 233.805 43.1277 233.31 43.9656L233.74 44.22ZM234.82 41.52L235.304 41.6462C235.551 40.7 235.68 39.8557 235.68 39.12H235.18H234.68C234.68 39.7443 234.569 40.5 234.336 41.3938L234.82 41.52ZM235.18 39.12H235.68V35.1H235.18H234.68V39.12H235.18ZM226.96 58.98V59.48C229.969 59.48 232.245 58.4253 233.677 56.2554L233.26 55.98L232.843 55.7046C231.635 57.5347 229.711 58.48 226.96 58.48V58.98ZM233.26 55.98L233.671 56.265C235.114 54.1857 235.8 51.2077 235.8 47.4H235.3H234.8C234.8 51.1123 234.126 53.8543 232.849 55.695L233.26 55.98ZM235.3 47.4H235.8V46.8H235.3H234.8V47.4H235.3ZM235.3 46.8L234.873 46.5393C233.198 49.2811 230.829 50.6867 227.722 50.8003L227.74 51.3L227.758 51.7997C231.211 51.6733 233.882 50.0789 235.727 47.0607L235.3 46.8ZM227.74 51.3L227.722 50.8003C225.538 50.8783 223.792 50.5445 222.453 49.8378L222.22 50.28L221.987 50.7222C223.528 51.5355 225.462 51.8817 227.758 51.7997L227.74 51.3ZM222.22 50.28L222.468 49.8459C221.136 49.0849 220.077 48.0809 219.282 46.8316L218.86 47.1L218.438 47.3684C219.323 48.7591 220.504 49.8751 221.972 50.7141L222.22 50.28ZM218.86 47.1L219.291 46.8465C218.526 45.5468 217.984 44.0058 217.673 42.2143L217.18 42.3L216.687 42.3857C217.016 44.2742 217.594 45.9332 218.429 47.3535L218.86 47.1ZM217.18 42.3L217.674 42.2248C217.399 40.4124 217.26 38.4777 217.26 36.42H216.76H216.26C216.26 38.5223 216.401 40.5076 216.686 42.3752L217.18 42.3ZM216.76 36.42H217.26C217.26 34.3718 217.457 32.4894 217.848 30.7708L217.36 30.66L216.872 30.5492C216.463 32.3506 216.26 34.3082 216.26 36.42H216.76ZM217.36 30.66L217.848 30.7708C218.236 29.0627 218.853 27.6033 219.692 26.3833L219.28 26.1L218.868 25.8167C217.947 27.1566 217.284 28.7373 216.872 30.5492L217.36 30.66ZM219.28 26.1L219.696 26.3773C220.533 25.122 221.594 24.1371 222.884 23.4165L222.64 22.98L222.396 22.5435C220.966 23.3429 219.787 24.438 218.864 25.8226L219.28 26.1ZM222.64 22.98L222.879 23.4194C224.193 22.7061 225.81 22.3187 227.75 22.2799L227.74 21.78L227.73 21.2801C225.67 21.3213 223.887 21.7339 222.401 22.5406L222.64 22.98ZM227.74 21.78L227.753 22.2798C229.192 22.242 230.483 22.5441 231.64 23.1784L231.88 22.74L232.12 22.3016C230.797 21.5758 229.328 21.238 227.727 21.2802L227.74 21.78ZM231.88 22.74L231.64 23.1784C232.788 23.8081 233.745 24.7767 234.506 26.1081L234.94 25.86L235.374 25.6119C234.535 24.1433 233.452 23.0319 232.12 22.3016L231.88 22.74ZM234.94 25.86V26.36H235.06V25.86V25.36H234.94V25.86ZM235.06 25.86L235.557 25.9123L235.917 22.4923L235.42 22.44L234.923 22.3877L234.563 25.8077L235.06 25.86ZM235.42 22.44V22.94H240.16V22.44V21.94H235.42V22.44ZM240.16 22.44H239.66V46.02H240.16H240.66V22.44H240.16ZM240.16 46.02H239.66C239.66 48.633 239.442 50.9781 239.01 53.0584L239.5 53.16L239.99 53.2616C240.438 51.1019 240.66 48.687 240.66 46.02H240.16ZM239.5 53.16L239.01 53.0584C238.582 55.1245 237.865 56.8582 236.871 58.2725L237.28 58.56L237.689 58.8475C238.775 57.3018 239.538 55.4355 239.99 53.2616L239.5 53.16ZM237.28 58.56L236.866 58.2801C235.918 59.683 234.648 60.7653 233.045 61.5286L233.26 61.98L233.475 62.4314C235.232 61.5947 236.642 60.397 237.694 58.8399L237.28 58.56ZM233.26 61.98L233.045 61.5286C231.45 62.2883 229.468 62.68 227.08 62.68V63.18V63.68C229.572 63.68 231.71 63.2717 233.475 62.4314L233.26 61.98ZM227.08 63.18V62.68C225.686 62.68 224.207 62.4864 222.641 62.0949L222.52 62.58L222.399 63.0651C224.033 63.4736 225.594 63.68 227.08 63.68V63.18ZM222.52 62.58L222.63 62.0922C221.07 61.7413 219.787 61.2393 218.766 60.5969L218.5 61.02L218.234 61.4431C219.373 62.1607 220.77 62.6987 222.41 63.0678L222.52 62.58ZM218.5 61.02H219V56.46H218.5H218V61.02H218.5ZM218.5 56.46V56.96H219.22V56.46V55.96H218.5V56.46ZM219.22 56.46L218.913 56.8547C219.313 57.1654 219.828 57.4637 220.449 57.7531L220.66 57.3L220.871 56.8469C220.292 56.5763 219.847 56.3146 219.527 56.0653L219.22 56.46ZM220.66 57.3L220.425 57.7412C221.048 58.0737 221.711 58.3636 222.414 58.6115L222.58 58.14L222.746 57.6685C222.089 57.4364 221.472 57.1663 220.895 56.8588L220.66 57.3ZM222.58 58.14L222.422 58.6143C223.16 58.8605 223.919 59.0654 224.697 59.2293L224.8 58.74L224.903 58.2507C224.161 58.0946 223.44 57.8995 222.738 57.6657L222.58 58.14ZM224.8 58.74L224.697 59.2293C225.486 59.3954 226.241 59.48 226.96 59.48V58.98V58.48C226.319 58.48 225.634 58.4046 224.903 58.2507L224.8 58.74ZM255.64 24.84L255.994 25.1936L256.002 25.1852L255.64 24.84ZM261.88 24.84L261.518 25.1852L261.526 25.1936L261.535 25.2017L261.88 24.84ZM261.88 31.08L261.535 30.7182L261.526 30.7264L261.88 31.08ZM249.4 59.28V58.78H248.642L248.94 59.477L249.4 59.28ZM252.94 58.74L252.787 58.264L252.782 58.2657L252.94 58.74ZM255.82 57.3L255.543 56.884L255.531 56.8917L255.52 56.9L255.82 57.3ZM257.74 55.32L257.324 55.0427L257.315 55.0558L257.307 55.0695L257.74 55.32ZM257.68 51.06L257.36 51.4441L257.367 51.4504L257.375 51.4563L257.68 51.06ZM256.18 49.92L255.886 50.3245L255.895 50.3311L256.18 49.92ZM254.98 48.84L255.352 48.5055L255.352 48.5055L254.98 48.84ZM255.4 44.64L255.791 44.9524L255.798 44.943L255.4 44.64ZM262.06 45.12L261.688 45.4538L261.694 45.4605L261.7 45.4671L262.06 45.12ZM259.54 58.86L259.219 58.4768L259.212 58.483L259.54 58.86ZM255.34 61.32L255.171 60.8493L255.161 60.8533L255.34 61.32ZM250.66 62.22L250.2 62.417L250.33 62.72H250.66V62.22ZM254.38 27.96H254.88C254.88 26.8461 255.252 25.9353 255.994 25.1936L255.64 24.84L255.286 24.4864C254.348 25.4247 253.88 26.5939 253.88 27.96H254.38ZM255.64 24.84L256.002 25.1852C256.745 24.4062 257.654 24.02 258.76 24.02V23.52V23.02C257.386 23.02 256.215 23.5138 255.278 24.4948L255.64 24.84ZM258.76 23.52V24.02C259.866 24.02 260.775 24.4062 261.518 25.1852L261.88 24.84L262.242 24.4948C261.305 23.5138 260.134 23.02 258.76 23.02V23.52ZM261.88 24.84L261.535 25.2017C262.314 25.9453 262.7 26.8537 262.7 27.96H263.2H263.7C263.7 26.5863 263.206 25.4147 262.225 24.4783L261.88 24.84ZM263.2 27.96H262.7C262.7 29.0663 262.314 29.9747 261.535 30.7183L261.88 31.08L262.225 31.4417C263.206 30.5053 263.7 29.3337 263.7 27.96H263.2ZM261.88 31.08L261.526 30.7264C260.785 31.4682 259.874 31.84 258.76 31.84V32.34V32.84C260.126 32.84 261.295 32.3718 262.234 31.4336L261.88 31.08ZM258.76 32.34V31.84C257.646 31.84 256.735 31.4682 255.994 30.7264L255.64 31.08L255.286 31.4336C256.225 32.3718 257.394 32.84 258.76 32.84V32.34ZM255.64 31.08L255.994 30.7264C255.252 29.9847 254.88 29.0739 254.88 27.96H254.38H253.88C253.88 29.3261 254.348 30.4953 255.286 31.4336L255.64 31.08ZM249.4 59.28V59.78C250.727 59.78 251.961 59.5933 253.098 59.2143L252.94 58.74L252.782 58.2657C251.759 58.6067 250.633 58.78 249.4 58.78V59.28ZM252.94 58.74L253.093 59.216C254.257 58.8419 255.269 58.3386 256.12 57.7L255.82 57.3L255.52 56.9C254.771 57.4614 253.863 57.9181 252.787 58.264L252.94 58.74ZM255.82 57.3L256.097 57.716C256.992 57.1199 257.689 56.4061 258.173 55.5705L257.74 55.32L257.307 55.0695C256.911 55.7539 256.328 56.3601 255.543 56.884L255.82 57.3ZM257.74 55.32L258.156 55.5974C258.686 54.8022 258.96 53.9468 258.96 53.04H258.46H257.96C257.96 53.7332 257.754 54.3978 257.324 55.0427L257.74 55.32ZM258.46 53.04H258.96C258.96 52.0309 258.672 51.1925 257.985 50.6637L257.68 51.06L257.375 51.4563C257.728 51.7275 257.96 52.2091 257.96 53.04H258.46ZM257.68 51.06L258 50.6759C257.509 50.2663 256.997 49.8773 256.465 49.5089L256.18 49.92L255.895 50.3311C256.403 50.6827 256.891 51.0537 257.36 51.4441L257.68 51.06ZM256.18 49.92L256.474 49.5156C256.062 49.2159 255.688 48.8793 255.352 48.5055L254.98 48.84L254.608 49.1745C254.992 49.6007 255.418 49.9841 255.886 50.3244L256.18 49.92ZM254.98 48.84L255.352 48.5055C255.099 48.2246 254.94 47.7989 254.94 47.16H254.44H253.94C253.94 47.9611 254.141 48.6554 254.608 49.1745L254.98 48.84ZM254.44 47.16H254.94C254.94 46.4116 255.209 45.6789 255.79 44.9523L255.4 44.64L255.01 44.3277C254.311 45.2011 253.94 46.1484 253.94 47.16H254.44ZM255.4 44.64L255.798 44.943C256.317 44.2616 257.147 43.88 258.4 43.88V43.38V42.88C256.933 42.88 255.763 43.3384 255.002 44.337L255.4 44.64ZM258.4 43.38V43.88C259.641 43.88 260.731 44.3863 261.688 45.4538L262.06 45.12L262.432 44.7862C261.309 43.5337 259.959 42.88 258.4 42.88V43.38ZM262.06 45.12L261.7 45.4671C262.652 46.4542 263.18 48.0612 263.18 50.4H263.68H264.18C264.18 47.9388 263.628 46.0258 262.42 44.7729L262.06 45.12ZM263.68 50.4H263.18C263.18 52.0434 262.818 53.5426 262.098 54.9066L262.54 55.14L262.982 55.3734C263.782 53.8574 264.18 52.1966 264.18 50.4H263.68ZM262.54 55.14L262.098 54.9066C261.368 56.2897 260.409 57.4788 259.219 58.4769L259.54 58.86L259.861 59.2431C261.151 58.1612 262.192 56.8703 262.982 55.3734L262.54 55.14ZM259.54 58.86L259.212 58.483C258.019 59.5218 256.673 60.3102 255.171 60.8494L255.34 61.32L255.509 61.7906C257.127 61.2098 258.581 60.3582 259.868 59.237L259.54 58.86ZM255.34 61.32L255.161 60.8533C253.654 61.4329 252.154 61.72 250.66 61.72V62.22V62.72C252.286 62.72 253.906 62.4071 255.519 61.7867L255.34 61.32ZM250.66 62.22L251.12 62.023L249.86 59.083L249.4 59.28L248.94 59.477L250.2 62.417L250.66 62.22Z" fill="#212121" mask="url(#path-1-outside-1_107_43)"/>
<mask id="path-3-outside-2_107_43" maskUnits="userSpaceOnUse" x="2" y="8" width="25" height="55" fill="black">
<rect fill="white" x="2" y="8" width="25" height="55"/>
<path d="M3.48 32.16H6.84C8.64 32.16 9.9 31.52 10.62 30.24C11.38 28.96 11.76 27.42 11.76 25.62V17.34C11.76 14.18 12.5 11.92 13.98 10.56C15.46 9.2 17.6 8.52 20.4 8.52H26.1V12.3H20.64C19.32 12.3 18.36 12.72 17.76 13.56C17.16 14.36 16.86 15.66 16.86 17.46V27.9C16.86 29.62 16.32 31.02 15.24 32.1C14.2 33.18 13 33.9 11.64 34.26V34.38C12.24 34.62 12.84 34.94 13.44 35.34C14.08 35.7 14.64 36.14 15.12 36.66C15.64 37.18 16.06 37.78 16.38 38.46C16.7 39.14 16.86 39.9 16.86 40.74V53.1C16.86 54.9 17.16 56.2 17.76 57C18.36 57.84 19.32 58.26 20.64 58.26H26.1V62.04H20.4C17.6 62.04 15.46 61.36 13.98 60C12.54 58.68 11.82 56.42 11.82 53.22V43.08C11.82 41.28 11.44 39.74 10.68 38.46C9.92 37.14 8.64 36.48 6.84 36.48H3.48V32.16Z"/>
</mask>
<path d="M3.48 32.16H6.84C8.64 32.16 9.9 31.52 10.62 30.24C11.38 28.96 11.76 27.42 11.76 25.62V17.34C11.76 14.18 12.5 11.92 13.98 10.56C15.46 9.2 17.6 8.52 20.4 8.52H26.1V12.3H20.64C19.32 12.3 18.36 12.72 17.76 13.56C17.16 14.36 16.86 15.66 16.86 17.46V27.9C16.86 29.62 16.32 31.02 15.24 32.1C14.2 33.18 13 33.9 11.64 34.26V34.38C12.24 34.62 12.84 34.94 13.44 35.34C14.08 35.7 14.64 36.14 15.12 36.66C15.64 37.18 16.06 37.78 16.38 38.46C16.7 39.14 16.86 39.9 16.86 40.74V53.1C16.86 54.9 17.16 56.2 17.76 57C18.36 57.84 19.32 58.26 20.64 58.26H26.1V62.04H20.4C17.6 62.04 15.46 61.36 13.98 60C12.54 58.68 11.82 56.42 11.82 53.22V43.08C11.82 41.28 11.44 39.74 10.68 38.46C9.92 37.14 8.64 36.48 6.84 36.48H3.48V32.16Z" fill="#7C3AED"/>
<path d="M3.48 32.16V31.66H2.98V32.16H3.48ZM10.62 30.24L10.19 29.9847L10.1842 29.9949L10.62 30.24ZM26.1 8.52H26.6V8.02H26.1V8.52ZM26.1 12.3V12.8H26.6V12.3H26.1ZM17.76 13.56L18.1601 13.8601L18.1669 13.8506L17.76 13.56ZM15.24 32.1L14.8864 31.7464L14.8798 31.7532L15.24 32.1ZM11.64 34.26L11.5121 33.7766L11.14 33.8751V34.26H11.64ZM11.64 34.38H11.14V34.7185L11.4543 34.8442L11.64 34.38ZM13.44 35.34L13.1627 35.756L13.1784 35.7665L13.1949 35.7758L13.44 35.34ZM15.12 36.66L14.7526 36.9991L14.7594 37.0065L14.7664 37.0136L15.12 36.66ZM16.38 38.46L15.9276 38.6729L15.9276 38.6729L16.38 38.46ZM17.76 57L18.167 56.7093L18.16 56.7L17.76 57ZM26.1 58.26H26.6V57.76H26.1V58.26ZM26.1 62.04V62.54H26.6V62.04H26.1ZM13.98 60L14.3183 59.6318L14.3179 59.6314L13.98 60ZM10.68 38.46L10.2466 38.7095L10.2501 38.7153L10.68 38.46ZM3.48 36.48H2.98V36.98H3.48V36.48ZM3.48 32.16V32.66H6.84V32.16V31.66H3.48V32.16ZM6.84 32.16V32.66C8.77261 32.66 10.226 31.9604 11.0558 30.4851L10.62 30.24L10.1842 29.9949C9.57405 31.0796 8.50739 31.66 6.84 31.66V32.16ZM10.62 30.24L11.0499 30.4953C11.8645 29.1233 12.26 27.491 12.26 25.62H11.76H11.26C11.26 27.349 10.8955 28.7967 10.1901 29.9847L10.62 30.24ZM11.76 25.62H12.26V17.34H11.76H11.26V25.62H11.76ZM11.76 17.34H12.26C12.26 14.2413 12.9877 12.1509 14.3183 10.9282L13.98 10.56L13.6417 10.1918C12.0123 11.6891 11.26 14.1187 11.26 17.34H11.76ZM13.98 10.56L14.3183 10.9282C15.6752 9.68133 17.6759 9.02 20.4 9.02V8.52V8.02C17.5241 8.02 15.2448 8.71866 13.6417 10.1918L13.98 10.56ZM20.4 8.52V9.02H26.1V8.52V8.02H20.4V8.52ZM26.1 8.52H25.6V12.3H26.1H26.6V8.52H26.1ZM26.1 12.3V11.8H20.64V12.3V12.8H26.1V12.3ZM20.64 12.3V11.8C19.2085 11.8 18.0727 12.262 17.3531 13.2694L17.76 13.56L18.1669 13.8506C18.6473 13.178 19.4315 12.8 20.64 12.8V12.3ZM17.76 13.56L17.36 13.26C16.6608 14.1922 16.36 15.6279 16.36 17.46H16.86H17.36C17.36 15.6921 17.6592 14.5277 18.16 13.86L17.76 13.56ZM16.86 17.46H16.36V27.9H16.86H17.36V17.46H16.86ZM16.86 27.9H16.36C16.36 29.5056 15.8605 30.7724 14.8864 31.7464L15.24 32.1L15.5936 32.4536C16.7795 31.2676 17.36 29.7344 17.36 27.9H16.86ZM15.24 32.1L14.8798 31.7532C13.899 32.7718 12.7778 33.4416 11.5121 33.7766L11.64 34.26L11.7679 34.7434C13.2222 34.3584 14.501 33.5882 15.6002 32.4468L15.24 32.1ZM11.64 34.26H11.14V34.38H11.64H12.14V34.26H11.64ZM11.64 34.38L11.4543 34.8442C12.0187 35.07 12.5882 35.373 13.1627 35.756L13.44 35.34L13.7174 34.924C13.0918 34.507 12.4613 34.17 11.8257 33.9158L11.64 34.38ZM13.44 35.34L13.1949 35.7758C13.791 36.1111 14.3094 36.519 14.7526 36.9991L15.12 36.66L15.4874 36.3209C14.9706 35.761 14.369 35.2889 13.6851 34.9042L13.44 35.34ZM15.12 36.66L14.7664 37.0136C15.2447 37.4918 15.6316 38.044 15.9276 38.6729L16.38 38.46L16.8324 38.2471C16.4884 37.516 16.0353 36.8682 15.4736 36.3064L15.12 36.66ZM16.38 38.46L15.9276 38.6729C16.2127 39.2788 16.36 39.9649 16.36 40.74H16.86H17.36C17.36 39.8351 17.1873 39.0012 16.8324 38.2471L16.38 38.46ZM16.86 40.74H16.36V53.1H16.86H17.36V40.74H16.86ZM16.86 53.1H16.36C16.36 54.9321 16.6608 56.3677 17.36 57.3L17.76 57L18.16 56.7C17.6592 56.0323 17.36 54.8679 17.36 53.1H16.86ZM17.76 57L17.3531 57.2906C18.0727 58.298 19.2085 58.76 20.64 58.76V58.26V57.76C19.4315 57.76 18.6473 57.382 18.1669 56.7094L17.76 57ZM20.64 58.26V58.76H26.1V58.26V57.76H20.64V58.26ZM26.1 58.26H25.6V62.04H26.1H26.6V58.26H26.1ZM26.1 62.04V61.54H20.4V62.04V62.54H26.1V62.04ZM20.4 62.04V61.54C17.6759 61.54 15.6752 60.8787 14.3183 59.6318L13.98 60L13.6417 60.3682C15.2448 61.8413 17.5241 62.54 20.4 62.54V62.04ZM13.98 60L14.3179 59.6314C13.0311 58.4519 12.32 56.3662 12.32 53.22H11.82H11.32C11.32 56.4738 12.0489 58.9081 13.6421 60.3686L13.98 60ZM11.82 53.22H12.32V43.08H11.82H11.32V53.22H11.82ZM11.82 43.08H12.32C12.32 41.209 11.9245 39.5767 11.1099 38.2047L10.68 38.46L10.2501 38.7153C10.9555 39.9033 11.32 41.351 11.32 43.08H11.82ZM10.68 38.46L11.1133 38.2105C10.2464 36.7048 8.78026 35.98 6.84 35.98V36.48V36.98C8.49974 36.98 9.59364 37.5752 10.2467 38.7095L10.68 38.46ZM6.84 36.48V35.98H3.48V36.48V36.98H6.84V36.48ZM3.48 36.48H3.98V32.16H3.48H2.98V36.48H3.48Z" fill="#7C3AED" mask="url(#path-3-outside-2_107_43)"/>
<mask id="path-5-outside-3_107_43" maskUnits="userSpaceOnUse" x="281" y="8" width="25" height="55" fill="black">
<rect fill="white" x="281" y="8" width="25" height="55"/>
<path d="M304.52 36.48H301.16C299.36 36.48 298.08 37.14 297.32 38.46C296.56 39.74 296.18 41.28 296.18 43.08V53.22C296.18 56.42 295.44 58.68 293.96 60C292.52 61.36 290.4 62.04 287.6 62.04H281.9V58.26H287.36C288.68 58.26 289.64 57.84 290.24 57C290.84 56.2 291.14 54.9 291.14 53.1V40.74C291.14 39.9 291.3 39.14 291.62 38.46C291.94 37.78 292.34 37.18 292.82 36.66C293.34 36.14 293.9 35.7 294.5 35.34C295.14 34.94 295.76 34.62 296.36 34.38V34.26C295 33.9 293.78 33.18 292.7 32.1C291.66 31.02 291.14 29.62 291.14 27.9V17.46C291.14 15.66 290.84 14.36 290.24 13.56C289.64 12.72 288.68 12.3 287.36 12.3H281.9V8.52H287.6C290.4 8.52 292.54 9.2 294.02 10.56C295.5 11.92 296.24 14.18 296.24 17.34V25.62C296.24 27.42 296.6 28.96 297.32 30.24C298.08 31.52 299.36 32.16 301.16 32.16H304.52V36.48Z"/>
</mask>
<path d="M304.52 36.48H301.16C299.36 36.48 298.08 37.14 297.32 38.46C296.56 39.74 296.18 41.28 296.18 43.08V53.22C296.18 56.42 295.44 58.68 293.96 60C292.52 61.36 290.4 62.04 287.6 62.04H281.9V58.26H287.36C288.68 58.26 289.64 57.84 290.24 57C290.84 56.2 291.14 54.9 291.14 53.1V40.74C291.14 39.9 291.3 39.14 291.62 38.46C291.94 37.78 292.34 37.18 292.82 36.66C293.34 36.14 293.9 35.7 294.5 35.34C295.14 34.94 295.76 34.62 296.36 34.38V34.26C295 33.9 293.78 33.18 292.7 32.1C291.66 31.02 291.14 29.62 291.14 27.9V17.46C291.14 15.66 290.84 14.36 290.24 13.56C289.64 12.72 288.68 12.3 287.36 12.3H281.9V8.52H287.6C290.4 8.52 292.54 9.2 294.02 10.56C295.5 11.92 296.24 14.18 296.24 17.34V25.62C296.24 27.42 296.6 28.96 297.32 30.24C298.08 31.52 299.36 32.16 301.16 32.16H304.52V36.48Z" fill="#7C3AED"/>
<path d="M304.52 36.48V36.98H305.02V36.48H304.52ZM297.32 38.46L297.75 38.7153L297.753 38.7095L297.32 38.46ZM293.96 60L293.627 59.6269L293.622 59.6316L293.617 59.6365L293.96 60ZM281.9 62.04H281.4V62.54H281.9V62.04ZM281.9 58.26V57.76H281.4V58.26H281.9ZM290.24 57L289.84 56.6999L289.833 56.7094L290.24 57ZM291.62 38.46L292.072 38.6729L292.072 38.6729L291.62 38.46ZM292.82 36.66L292.466 36.3064L292.459 36.3135L292.453 36.3209L292.82 36.66ZM294.5 35.34L294.757 35.7688L294.765 35.764L294.5 35.34ZM296.36 34.38L296.546 34.8442L296.86 34.7185V34.38H296.36ZM296.36 34.26H296.86V33.8751L296.488 33.7766L296.36 34.26ZM292.7 32.1L292.34 32.4469L292.346 32.4536L292.7 32.1ZM290.24 13.56L289.833 13.8507L289.84 13.86L290.24 13.56ZM281.9 12.3H281.4V12.8H281.9V12.3ZM281.9 8.52V8.02H281.4V8.52H281.9ZM294.02 10.56L294.358 10.1918L294.358 10.1918L294.02 10.56ZM297.32 30.24L296.884 30.4852L296.89 30.4953L297.32 30.24ZM304.52 32.16H305.02V31.66H304.52V32.16ZM304.52 36.48V35.98H301.16V36.48V36.98H304.52V36.48ZM301.16 36.48V35.98C299.22 35.98 297.754 36.7048 296.887 38.2105L297.32 38.46L297.753 38.7095C298.406 37.5752 299.5 36.98 301.16 36.98V36.48ZM297.32 38.46L296.89 38.2047C296.075 39.5767 295.68 41.209 295.68 43.08H296.18H296.68C296.68 41.351 297.045 39.9033 297.75 38.7153L297.32 38.46ZM296.18 43.08H295.68V53.22H296.18H296.68V43.08H296.18ZM296.18 53.22H295.68C295.68 56.3628 294.95 58.4466 293.627 59.6269L293.96 60L294.293 60.3731C295.93 58.9134 296.68 56.4772 296.68 53.22H296.18ZM293.96 60L293.617 59.6365C292.302 60.8782 290.325 61.54 287.6 61.54V62.04V62.54C290.475 62.54 292.738 61.8418 294.303 60.3635L293.96 60ZM287.6 62.04V61.54H281.9V62.04V62.54H287.6V62.04ZM281.9 62.04H282.4V58.26H281.9H281.4V62.04H281.9ZM281.9 58.26V58.76H287.36V58.26V57.76H281.9V58.26ZM287.36 58.26V58.76C288.791 58.76 289.927 58.298 290.647 57.2906L290.24 57L289.833 56.7094C289.353 57.382 288.569 57.76 287.36 57.76V58.26ZM290.24 57L290.64 57.3C291.339 56.3677 291.64 54.9321 291.64 53.1H291.14H290.64C290.64 54.8679 290.341 56.0323 289.84 56.7L290.24 57ZM291.14 53.1H291.64V40.74H291.14H290.64V53.1H291.14ZM291.14 40.74H291.64C291.64 39.9649 291.787 39.2788 292.072 38.6729L291.62 38.46L291.168 38.2471C290.813 39.0012 290.64 39.8351 290.64 40.74H291.14ZM291.62 38.46L292.072 38.6729C292.372 38.0362 292.744 37.4794 293.187 36.9991L292.82 36.66L292.453 36.3209C291.936 36.8806 291.508 37.5238 291.168 38.2471L291.62 38.46ZM292.82 36.66L293.174 37.0136C293.666 36.521 294.194 36.1067 294.757 35.7687L294.5 35.34L294.243 34.9113C293.606 35.2933 293.014 35.759 292.466 36.3064L292.82 36.66ZM294.5 35.34L294.765 35.764C295.384 35.3772 295.977 35.0716 296.546 34.8442L296.36 34.38L296.174 33.9158C295.543 34.1684 294.896 34.5028 294.235 34.916L294.5 35.34ZM296.36 34.38H296.86V34.26H296.36H295.86V34.38H296.36ZM296.36 34.26L296.488 33.7766C295.221 33.4412 294.077 32.7695 293.054 31.7464L292.7 32.1L292.346 32.4536C293.483 33.5905 294.779 34.3588 296.232 34.7434L296.36 34.26ZM292.7 32.1L293.06 31.7532C292.123 30.7802 291.64 29.5112 291.64 27.9H291.14H290.64C290.64 29.7288 291.197 31.2598 292.34 32.4468L292.7 32.1ZM291.14 27.9H291.64V17.46H291.14H290.64V27.9H291.14ZM291.14 17.46H291.64C291.64 15.6279 291.339 14.1922 290.64 13.26L290.24 13.56L289.84 13.86C290.341 14.5277 290.64 15.6921 290.64 17.46H291.14ZM290.24 13.56L290.647 13.2694C289.927 12.262 288.791 11.8 287.36 11.8V12.3V12.8C288.569 12.8 289.353 13.178 289.833 13.8506L290.24 13.56ZM287.36 12.3V11.8H281.9V12.3V12.8H287.36V12.3ZM281.9 12.3H282.4V8.52H281.9H281.4V12.3H281.9ZM281.9 8.52V9.02H287.6V8.52V8.02H281.9V8.52ZM287.6 8.52V9.02C290.324 9.02 292.325 9.68133 293.682 10.9282L294.02 10.56L294.358 10.1918C292.755 8.71866 290.476 8.02 287.6 8.02V8.52ZM294.02 10.56L293.682 10.9282C295.012 12.1509 295.74 14.2413 295.74 17.34H296.24H296.74C296.74 14.1187 295.988 11.6891 294.358 10.1918L294.02 10.56ZM296.24 17.34H295.74V25.62H296.24H296.74V17.34H296.24ZM296.24 25.62H295.74C295.74 27.4866 296.114 29.1151 296.884 30.4851L297.32 30.24L297.756 29.9949C297.086 28.8048 296.74 27.3534 296.74 25.62H296.24ZM297.32 30.24L296.89 30.4953C297.76 31.9608 299.227 32.66 301.16 32.66V32.16V31.66C299.493 31.66 298.4 31.0792 297.75 29.9847L297.32 30.24ZM301.16 32.16V32.66H304.52V32.16V31.66H301.16V32.16ZM304.52 32.16H304.02V36.48H304.52H305.02V32.16H304.52Z" fill="#7C3AED" mask="url(#path-5-outside-3_107_43)"/>
</svg>
